<?xml version="1.0" standalone="no"?>
<!DOCTYPE svg PUBLIC "-//W3C//DTD SVG 20010904//EN"
 "http://www.w3.org/TR/2001/REC-SVG-20010904/DTD/svg10.dtd">
<svg xmlns="http://www.w3.org/2000/svg" version="1.0" width="250.000000pt" height="100.000000pt" viewBox="0 0 250.000000 100.000000" preserveAspectRatio="xMidYMid meet">
  <g transform="translate(0.000000,100.000000) scale(0.100000,-0.100000)" fill="#000000" stroke="none">
    <path fill="#3056d3" d="M221 714 c-23 -29 -38 -111 -24 -125 7 -7 12 0 16 20 9 43 36 81 57 81 10 0 32 -11 48 -25 51 -43 99 -22 60 27 -44 54 -123 65 -157 22z"/>
    <path fill="#3056d3" d="M223 524 c-3 -8 0 -26 8 -40 12 -24 9 -29 -87 -126 -108 -110 -108 -110 75 4 87 54 128 67 119 35 -2 -6 -33 -27 -68 -45 -35 -18 -66 -35 -69 -38 -11 -11 83 8 137 28 95 35 92 78 -9 158 -53 42 -95 51 -106 24z"/>
    <path fill="#3056d3" d="M641 597 c-7 -14 -27 -35 -44 -47 -33 -25 -53 -20 -73 19 -20 38 -31 46 -49 31 -33 -27 22 -120 72 -120 28 0 87 51 103 89 16 38 9 61 -9 28z"/>
    <path fill="#3056d3" d="M442 708 c-22 -22 -14 -67 13 -80 51 -23 99 27 68 71 -16 23 -62 28 -81 9z"/>
    <path fill="#090e34" d="M805 657 c-51 -23 -73 -69 -53 -112 12 -26 35 -40 96 -55 47 -12 56 -35 18 -49 -22 -9 -68 -3 -108 14 -11 4 -20 0 -27 -14 -17 -30 -14 -38 20 -50 74 -26 175 -6 199 38 29 54 -4 102 -82 121 -36 9 -48 17 -48 31 0 30 53 36 112 14 9 -4 19 4 26 20 11 23 9 26 -16 36 -44 18 -105 20 -137 6z"/>
    <path fill="#090e34" d="M1381 648 c-56 -29 -81 -74 -81 -146 0 -48 4 -58 34 -88 31 -31 40 -34 91 -34 34 0 68 6 84 16 85 50 103 193 31 246 -42 30 -108 33 -159 6z m110 -59 c17 -17 20 -30 16 -66 -6 -56 -30 -83 -73 -83 -67 0 -86 98 -29 148 33 28 59 28 86 1z"/>
    <path fill="#090e34" d="M1045 648 c-2 -7 -11 -60 -20 -118 -9 -58 -18 -115 -21 -127 -4 -20 0 -23 31 -23 38 0 40 3 50 63 l6 37 50 0 c27 0 63 7 80 15 53 28 65 100 24 140 -22 23 -32 25 -110 25 -60 0 -87 -4 -90 -12z m143 -50 c32 -32 1 -68 -57 -68 -33 0 -34 2 -25 49 6 27 11 31 38 31 18 0 37 -5 44 -12z"/>
    <path fill="#090e34" d="M1655 648 c-2 -7 -11 -60 -20 -118 -9 -58 -18 -115 -21 -128 -4 -21 -2 -23 33 -20 37 3 38 4 46 56 8 46 12 53 29 50 23 -3 30 -13 53 -70 14 -34 19 -38 51 -38 32 0 35 2 28 23 -14 46 -23 65 -33 72 -7 4 3 19 24 39 43 41 47 85 10 121 -22 23 -32 25 -110 25 -60 0 -87 -4 -90 -12z m145 -53 c6 -8 9 -23 5 -35 -5 -16 -15 -20 -52 -20 -42 0 -45 2 -39 23 3 12 6 28 6 35 0 17 65 15 80 -3z"/>
    <path fill="#090e34" d="M1920 630 c0 -28 2 -30 40 -30 47 0 47 2 25 -120 -8 -47 -15 -88 -15 -92 0 -7 69 -12 71 -5 0 1 8 49 17 107 l17 105 48 3 c31 2 47 8 47 17 0 7 3 20 6 29 5 14 -10 16 -125 16 l-131 0 0 -30z"/>
    <path fill="#090e34" d="M2190 656 c0 -3 18 -38 40 -79 39 -71 40 -76 30 -127 -14 -72 -14 -70 24 -70 38 0 40 4 50 80 5 36 19 59 70 120 l64 75 -39 3 c-40 3 -54 -7 -106 -77 -9 -13 -15 -8 -34 32 -21 44 -26 47 -61 47 -21 0 -38 -2 -38 -4z"/>
  </g>
</svg>
